<svg width="32" height="33" viewBox="0 0 32 33" fill="none" xmlns="http://www.w3.org/2000/svg">
<path fill-rule="evenodd" clip-rule="evenodd" d="M0 16.1689C0 7.33239 7.16344 0.168945 16 0.168945C24.8366 0.168945 32 7.33239 32 16.1689C32 25.0055 24.8366 32.1689 16 32.1689C7.16344 32.1689 0 25.0055 0 16.1689Z" fill="#E5F4F2"/>
<path fill-rule="evenodd" clip-rule="evenodd" d="M16.0007 7.63574C13.6832 7.63574 13.3923 7.64588 12.4821 7.6873C11.5736 7.7289 10.9535 7.87272 10.4109 8.08375C9.84969 8.3017 9.37359 8.59326 8.89928 9.06776C8.42461 9.54207 8.13305 10.0182 7.91438 10.5792C7.70282 11.122 7.55882 11.7423 7.51793 12.6504C7.47722 13.5606 7.46655 13.8516 7.46655 16.1692C7.46655 18.4867 7.47686 18.7767 7.51811 19.6869C7.55989 20.5953 7.70371 21.2154 7.91456 21.758C8.13269 22.3193 8.42425 22.7954 8.89875 23.2697C9.37288 23.7444 9.84898 24.0366 10.4099 24.2546C10.9528 24.4656 11.5731 24.6094 12.4814 24.651C13.3916 24.6925 13.6823 24.7026 15.9996 24.7026C18.3173 24.7026 18.6073 24.6925 19.5175 24.651C20.426 24.6094 21.0468 24.4656 21.5897 24.2546C22.1508 24.0366 22.6262 23.7444 23.1003 23.2697C23.575 22.7954 23.8665 22.3193 24.0852 21.7582C24.295 21.2154 24.439 20.5952 24.4817 19.6871C24.5226 18.7768 24.5332 18.4867 24.5332 16.1692C24.5332 13.8516 24.5226 13.5608 24.4817 12.6505C24.439 11.7421 24.295 11.122 24.0852 10.5794C23.8665 10.0182 23.575 9.54207 23.1003 9.06776C22.6256 8.59309 22.151 8.30153 21.5892 8.08375C21.0452 7.87272 20.4247 7.7289 19.5163 7.6873C18.606 7.64588 18.3163 7.63574 15.998 7.63574H16.0007ZM15.2351 9.17351C15.4623 9.17316 15.7158 9.17351 16.0006 9.17351C18.2791 9.17351 18.5491 9.18169 19.4489 9.22258C20.2809 9.26062 20.7324 9.39965 21.0332 9.51645C21.4315 9.67112 21.7154 9.85601 22.0139 10.1547C22.3125 10.4533 22.4974 10.7378 22.6525 11.136C22.7693 11.4365 22.9085 11.888 22.9463 12.72C22.9872 13.6196 22.9961 13.8898 22.9961 16.1672C22.9961 18.4445 22.9872 18.7148 22.9463 19.6143C22.9083 20.4463 22.7693 20.8979 22.6525 21.1983C22.4978 21.5966 22.3125 21.8801 22.0139 22.1786C21.7152 22.4773 21.4316 22.6622 21.0332 22.8169C20.7328 22.9342 20.2809 23.0729 19.4489 23.1109C18.5493 23.1518 18.2791 23.1607 16.0006 23.1607C13.722 23.1607 13.452 23.1518 12.5524 23.1109C11.7204 23.0725 11.2689 22.9335 10.9679 22.8167C10.5697 22.662 10.2852 22.4771 9.98654 22.1784C9.68787 21.8798 9.50298 21.596 9.34796 21.1976C9.23116 20.8972 9.09196 20.4456 9.05409 19.6136C9.0132 18.7141 9.00502 18.4438 9.00502 16.1651C9.00502 13.8863 9.0132 13.6175 9.05409 12.7179C9.09213 11.8859 9.23116 11.4343 9.34796 11.1335C9.50263 10.7353 9.68787 10.4509 9.98654 10.1522C10.2852 9.85352 10.5697 9.66863 10.9679 9.5136C11.2687 9.39627 11.7204 9.2576 12.5524 9.21938C13.3396 9.18382 13.6447 9.17316 15.2351 9.17138V9.17351ZM20.5557 10.5904C19.9904 10.5904 19.5317 11.0486 19.5317 11.6141C19.5317 12.1794 19.9904 12.6381 20.5557 12.6381C21.1211 12.6381 21.5797 12.1794 21.5797 11.6141C21.5797 11.0487 21.1211 10.5904 20.5557 10.5904ZM16.0007 11.7869C13.5806 11.7869 11.6184 13.749 11.6184 16.1691C11.6184 18.5893 13.5806 20.5505 16.0007 20.5505C18.4208 20.5505 20.3823 18.5893 20.3823 16.1691C20.3823 13.749 18.4208 11.7869 16.0007 11.7869ZM16.0007 13.3247C17.5715 13.3247 18.8451 14.5981 18.8451 16.1691C18.8451 17.74 17.5715 19.0136 16.0007 19.0136C14.4296 19.0136 13.1562 17.74 13.1562 16.1691C13.1562 14.5981 14.4296 13.3247 16.0007 13.3247Z" fill="#2D2D2D"/>
</svg>
