<svg width="29" height="21" viewBox="0 0 29 21" fill="none" xmlns="http://www.w3.org/2000/svg">
<path opacity="0.2" d="M10 12.6689C12.7614 12.6689 15 10.4304 15 7.66895C15 4.90752 12.7614 2.66895 10 2.66895C7.23858 2.66895 5 4.90752 5 7.66895C5 10.4304 7.23858 12.6689 10 12.6689Z" fill="#009379"/>
<path d="M10 12.6689C12.7614 12.6689 15 10.4304 15 7.66895C15 4.90752 12.7614 2.66895 10 2.66895C7.23858 2.66895 5 4.90752 5 7.66895C5 10.4304 7.23858 12.6689 10 12.6689Z" stroke="#009379" stroke-width="0.740741" stroke-miterlimit="10"/>
<path d="M2.42188 17.0442C3.18979 15.7138 4.2944 14.609 5.62465 13.8409C6.9549 13.0728 8.46392 12.6685 10 12.6685C11.5361 12.6685 13.0451 13.0728 14.3753 13.8409C15.7056 14.609 16.8102 15.7138 17.5781 17.0442" stroke="#009379" stroke-width="0.740741" stroke-linecap="round" stroke-linejoin="round"/>
<rect x="28" y="0.168945" width="1" height="20" fill="#DBE3FF"/>
</svg>
