<svg width="32" height="33" viewBox="0 0 32 33" fill="none" xmlns="http://www.w3.org/2000/svg">
<path fill-rule="evenodd" clip-rule="evenodd" d="M0 16.1689C0 7.33239 7.16344 0.168945 16 0.168945C24.8366 0.168945 32 7.33239 32 16.1689C32 25.0055 24.8366 32.1689 16 32.1689C7.16344 32.1689 0 25.0055 0 16.1689Z" fill="#E5F4F2"/>
<path fill-rule="evenodd" clip-rule="evenodd" d="M18.3721 12.6153H22.8916V11.3205H18.3721V12.6153ZM19.4428 15.4407C19.1548 15.7337 18.9732 16.1306 18.8989 16.6316H22.414C22.3769 16.097 22.1942 15.6931 21.8711 15.4149C21.544 15.1387 21.1416 15.0011 20.66 15.0011C20.1382 15.0011 19.7308 15.1476 19.4428 15.4407ZM22.4932 13.7023C23.0381 13.9419 23.4866 14.322 23.8399 14.8408C24.162 15.2981 24.3687 15.8287 24.463 16.4316C24.5182 16.784 24.5403 17.2948 24.5312 17.9591H18.8487C18.8828 18.7303 19.1517 19.2718 19.6655 19.5816C19.9766 19.7747 20.3508 19.8717 20.7904 19.8717C21.253 19.8717 21.6313 19.7539 21.9213 19.5192C22.0808 19.3915 22.2213 19.2153 22.3417 18.9896H24.4239C24.3687 19.445 24.1158 19.9093 23.6683 20.3805C22.9699 21.1279 21.9915 21.5021 20.7342 21.5021C19.6956 21.5021 18.7794 21.1873 17.9877 20.5557C17.192 19.9251 16.7966 18.8976 16.7966 17.476C16.7966 16.1425 17.1549 15.1199 17.8703 14.4082C18.5878 13.6984 19.516 13.341 20.6589 13.341C21.3382 13.341 21.9493 13.4618 22.4932 13.7023ZM9.56876 16.6593V19.4341H12.1296C12.5871 19.4341 12.9444 19.3727 13.1982 19.251C13.6608 19.0233 13.8916 18.5917 13.8916 17.9522C13.8916 17.4097 13.6689 17.0384 13.2203 16.8355C12.9695 16.7226 12.6172 16.6632 12.1657 16.6593H9.56876ZM9.56876 12.6421V14.9378H12.1336C12.5902 14.9378 12.9624 14.8516 13.2494 14.6794C13.5344 14.5071 13.6779 14.2022 13.6779 13.7666C13.6779 13.2806 13.4892 12.9608 13.1119 12.8044C12.7848 12.6965 12.3694 12.6421 11.8647 12.6421H9.56876ZM15.2965 11.9442C15.6186 12.3867 15.7802 12.9153 15.7802 13.5321C15.7802 14.1666 15.6186 14.6784 15.2925 15.0645C15.1098 15.2803 14.8419 15.4783 14.4877 15.6565C15.0256 15.8505 15.431 16.1564 15.7069 16.5752C15.9798 16.9929 16.1173 17.5017 16.1173 18.0997C16.1173 18.7164 15.9608 19.2698 15.6467 19.7588C15.448 20.0825 15.1992 20.3558 14.9001 20.5775C14.564 20.8319 14.1676 21.0052 13.709 21.1002C13.2505 21.1942 12.7547 21.2398 12.2189 21.2398H7.46655V10.8354H12.5631C13.8495 10.8543 14.7596 11.2235 15.2965 11.9442Z" fill="#2D2D2D"/>
</svg>
