<svg width="32" height="33" viewBox="0 0 32 33" fill="none" xmlns="http://www.w3.org/2000/svg">
<path fill-rule="evenodd" clip-rule="evenodd" d="M0 16.1689C0 7.33239 7.16344 0.168945 16 0.168945C24.8366 0.168945 32 7.33239 32 16.1689C32 25.0055 24.8366 32.1689 16 32.1689C7.16344 32.1689 0 25.0055 0 16.1689Z" fill="#4E4D4D"/>
<path fill-rule="evenodd" clip-rule="evenodd" d="M24.5332 16.1572C24.5332 16.7343 24.4745 17.3106 24.3591 17.8724C24.2465 18.4208 24.0799 18.9592 23.8615 19.4739C23.6482 19.9795 23.3836 20.4667 23.0744 20.921C22.7698 21.3725 22.419 21.7961 22.0335 22.1822C21.6473 22.5667 21.2222 22.9166 20.771 23.2224C20.3151 23.5295 19.8272 23.7937 19.3213 24.008C18.8059 24.2252 18.2662 24.3916 17.7183 24.5039C17.1558 24.6196 16.5774 24.6787 15.9995 24.6787C15.4211 24.6787 14.8428 24.6196 14.2811 24.5039C13.7323 24.3916 13.1927 24.2252 12.6777 24.008C12.1718 23.7937 11.6834 23.5295 11.2276 23.2224C10.7763 22.9166 10.3513 22.5667 9.96587 22.1822C9.58003 21.7961 9.22915 21.3725 8.92414 20.921C8.61663 20.4667 8.35159 19.9794 8.13743 19.4739C7.91906 18.9592 7.75199 18.4208 7.63907 17.8724C7.5249 17.3106 7.46655 16.7343 7.46655 16.1572C7.46655 15.5797 7.52487 15.0022 7.6391 14.4417C7.75203 13.8933 7.91909 13.354 8.13747 12.8402C8.35163 12.3342 8.61666 11.8466 8.92418 11.3922C9.22919 10.9403 9.58006 10.5176 9.9659 10.131C10.3513 9.74653 10.7764 9.39747 11.2276 9.09206C11.6835 8.78372 12.1719 8.51954 12.6777 8.30482C13.1927 8.08716 13.7323 7.92034 14.2811 7.80884C14.8428 7.69401 15.4212 7.63574 15.9995 7.63574C16.5775 7.63574 17.1558 7.69401 17.7184 7.80884C18.2663 7.92037 18.8059 8.0872 19.3214 8.30482C19.8272 8.51951 20.3152 8.78372 20.771 9.09206C21.2223 9.39747 21.6473 9.74653 22.0336 10.131C22.419 10.5176 22.7699 10.9403 23.0745 11.3922C23.3836 11.8466 23.6482 12.3343 23.8615 12.8402C24.0799 13.354 24.2465 13.8933 24.3591 14.4417C24.4745 15.0022 24.5332 15.5797 24.5332 16.1572ZM12.8901 9.57512C10.8579 10.5334 9.34119 12.4033 8.86824 14.6568C9.06036 14.6585 12.0972 14.6968 15.5961 13.7685C14.3348 11.5307 12.9872 9.70456 12.8901 9.57512ZM16.1999 14.889C12.4476 16.0108 8.84699 15.93 8.71783 15.9251C8.71573 16.0033 8.71199 16.079 8.71199 16.1572C8.71199 18.0267 9.41827 19.731 10.5792 21.0196C10.5767 21.0159 12.571 17.4829 16.5036 16.213C16.5986 16.1814 16.6953 16.1531 16.7912 16.1256C16.6083 15.7121 16.4086 15.2976 16.1999 14.889ZM20.8122 10.6957C19.5292 9.56596 17.8446 8.8807 15.9995 8.8807C15.4074 8.8807 14.8327 8.95228 14.2823 9.08459C14.3915 9.23107 15.7603 11.0444 17.0066 13.3295C19.7563 12.3001 20.7943 10.7223 20.8122 10.6957ZM17.2879 17.3314C17.2717 17.3368 17.2554 17.3414 17.2396 17.3472C12.9398 18.844 11.5357 21.8605 11.5205 21.8934C12.7577 22.8542 14.3094 23.4338 15.9995 23.4338C17.0087 23.4338 17.97 23.2286 18.8446 22.8571C18.7367 22.2213 18.3134 19.9927 17.2879 17.3314ZM20.0718 22.1922C21.7081 21.0896 22.8702 19.3387 23.1944 17.3106C23.0444 17.2623 21.0055 16.6178 18.6533 16.9944C19.6092 19.6174 19.9976 21.7536 20.0718 22.1922ZM17.5675 14.4138C17.7367 14.7608 17.9005 15.114 18.0517 15.469C18.1055 15.5964 18.158 15.7212 18.2092 15.846C20.7127 15.5314 23.179 16.0607 23.2845 16.0823C23.2678 14.3572 22.6498 12.774 21.6273 11.5345C21.6136 11.554 20.4448 13.2404 17.5675 14.4138Z" fill="white"/>
</svg>
