<svg width="32" height="33" viewBox="0 0 32 33" fill="none" xmlns="http://www.w3.org/2000/svg">
<circle cx="16" cy="16.1689" r="16" fill="#4E4D4D"/>
<path d="M16.0001 4.16895C9.3735 4.16895 4 9.67742 4 16.4728C4 21.9089 7.43839 26.5209 12.2064 28.1478C12.8061 28.2617 13.0263 27.8809 13.0263 27.5559C13.0263 27.2625 13.0152 26.2933 13.01 25.2652C9.67157 26.0095 8.96712 23.8135 8.96712 23.8135C8.42125 22.3914 7.63473 22.0132 7.63473 22.0132C6.54596 21.2496 7.7168 21.2653 7.7168 21.2653C8.92181 21.3521 9.55632 22.5332 9.55632 22.5332C10.6266 24.4142 12.3636 23.8704 13.0484 23.556C13.1561 22.7608 13.4671 22.218 13.8102 21.9107C11.1449 21.5996 8.34295 20.5446 8.34295 15.8301C8.34295 14.4868 8.81172 13.3893 9.57937 12.5276C9.45477 12.2177 9.04402 10.9663 9.69562 9.27156C9.69562 9.27156 10.7033 8.94088 12.9965 10.5327C13.9537 10.2601 14.9803 10.1234 16.0001 10.1187C17.0199 10.1234 18.0473 10.2601 19.0063 10.5327C21.2967 8.94088 22.303 9.27156 22.303 9.27156C22.9562 10.9663 22.5452 12.2177 22.4206 12.5276C23.1901 13.3893 23.6557 14.4868 23.6557 15.8301C23.6557 20.5558 20.8484 21.5963 18.1762 21.901C18.6067 22.2828 18.9902 23.0315 18.9902 24.1794C18.9902 25.8257 18.9763 27.1507 18.9763 27.5559C18.9763 27.8833 19.1923 28.267 19.8006 28.1462C24.566 26.5174 28 21.9071 28 16.4728C28 9.67742 22.6273 4.16895 16.0001 4.16895Z" fill="white"/>
<path d="M8.58043 21.7501C8.55405 21.8106 8.46043 21.8288 8.37514 21.7872C8.28827 21.7475 8.23947 21.665 8.26764 21.6042C8.29342 21.5419 8.38724 21.5246 8.47392 21.5663C8.56099 21.6061 8.61058 21.6894 8.58043 21.7501Z" fill="white"/>
<path d="M9.06559 22.3004C9.00846 22.3543 8.89679 22.3293 8.82103 22.2441C8.74268 22.1592 8.728 22.0456 8.78592 21.991C8.84483 21.9371 8.95312 21.9623 9.03167 22.0473C9.11002 22.1332 9.12529 22.246 9.06559 22.3004Z" fill="white"/>
<path d="M9.53784 23.0021C9.46445 23.0539 9.34445 23.0053 9.27027 22.897C9.19688 22.7886 9.19688 22.6587 9.27186 22.6067C9.34624 22.5546 9.46445 22.6014 9.53963 22.709C9.61282 22.8191 9.61282 22.949 9.53784 23.0021Z" fill="white"/>
<path d="M10.1848 23.6799C10.1192 23.7535 9.97936 23.7338 9.87701 23.6333C9.77229 23.5351 9.74313 23.3957 9.80898 23.322C9.87543 23.2482 10.0161 23.269 10.1192 23.3686C10.2231 23.4667 10.2549 23.6071 10.1848 23.6799Z" fill="white"/>
<path d="M11.0774 24.0735C11.0485 24.1689 10.9138 24.2123 10.7781 24.1717C10.6426 24.13 10.554 24.0182 10.5813 23.9218C10.6095 23.8258 10.7448 23.7806 10.8814 23.8239C11.0167 23.8655 11.1056 23.9765 11.0774 24.0735Z" fill="white"/>
<path d="M12.0576 24.1465C12.061 24.247 11.946 24.3303 11.8036 24.3321C11.6604 24.3354 11.5445 24.2541 11.5429 24.1552C11.5429 24.0537 11.6554 23.9712 11.7986 23.9688C11.941 23.966 12.0576 24.0467 12.0576 24.1465Z" fill="white"/>
<path d="M12.9699 23.9886C12.9869 24.0866 12.8879 24.1873 12.7465 24.2141C12.6075 24.2399 12.4787 24.1794 12.4611 24.0822C12.4438 23.9817 12.5446 23.881 12.6834 23.855C12.8251 23.83 12.9518 23.8889 12.9699 23.9886Z" fill="white"/>
</svg>
