<svg width="24" height="25" viewBox="0 0 24 25" fill="none" xmlns="http://www.w3.org/2000/svg">
<path opacity="0.2" d="M8.67187 11.8687C9.44364 13.4625 10.7324 14.7479 12.3281 15.5156C12.4458 15.5713 12.576 15.5955 12.7059 15.5856C12.8358 15.5757 12.9608 15.5322 13.0687 15.4594L15.4125 13.8937C15.516 13.8235 15.6357 13.7806 15.7603 13.7692C15.8849 13.7577 16.0104 13.778 16.125 13.8281L20.5125 15.7125C20.6625 15.7749 20.7877 15.8849 20.869 16.0255C20.9504 16.1661 20.9832 16.3295 20.9625 16.4906C20.8234 17.576 20.2937 18.5735 19.4723 19.2965C18.6509 20.0195 17.5943 20.4185 16.5 20.4187C13.1185 20.4187 9.87548 19.0754 7.48439 16.6843C5.0933 14.2933 3.75 11.0502 3.75 7.66873C3.75025 6.57448 4.1492 5.51781 4.87221 4.69644C5.59522 3.87507 6.59274 3.34529 7.67812 3.20623C7.83922 3.18554 8.00266 3.21838 8.14326 3.29969C8.28386 3.381 8.39384 3.50628 8.45625 3.65623L10.3406 8.05311C10.3896 8.16593 10.4101 8.28908 10.4003 8.4117C10.3905 8.53431 10.3507 8.65263 10.2844 8.75623L8.71875 11.1375C8.64905 11.2452 8.60814 11.369 8.59993 11.497C8.59172 11.625 8.61649 11.753 8.67187 11.8687Z" fill="#009379"/>
<path d="M8.67187 11.8687C9.44364 13.4625 10.7324 14.7479 12.3281 15.5156C12.4458 15.5713 12.576 15.5955 12.7059 15.5856C12.8358 15.5757 12.9608 15.5322 13.0687 15.4594L15.4125 13.8937C15.516 13.8235 15.6357 13.7806 15.7603 13.7692C15.8849 13.7577 16.0104 13.778 16.125 13.8281L20.5125 15.7125C20.6625 15.7749 20.7877 15.8849 20.869 16.0255C20.9504 16.1661 20.9832 16.3295 20.9625 16.4906C20.8234 17.576 20.2937 18.5735 19.4723 19.2965C18.6509 20.0195 17.5943 20.4185 16.5 20.4187C13.1185 20.4187 9.87548 19.0754 7.48439 16.6843C5.0933 14.2933 3.75 11.0502 3.75 7.66873C3.75025 6.57448 4.1492 5.51781 4.87221 4.69644C5.59522 3.87507 6.59274 3.34529 7.67812 3.20623C7.83922 3.18554 8.00266 3.21838 8.14326 3.29969C8.28386 3.381 8.39384 3.50628 8.45625 3.65623L10.3406 8.05311C10.3896 8.16593 10.4101 8.28908 10.4003 8.4117C10.3905 8.53431 10.3507 8.65263 10.2844 8.75623L8.71875 11.1375C8.64905 11.2452 8.60814 11.369 8.59993 11.497C8.59172 11.625 8.61649 11.753 8.67187 11.8687Z" stroke="#009379" stroke-width="1.5" stroke-linecap="round" stroke-linejoin="round"/>
<path d="M14.9438 3.91895C16.216 4.26036 17.3759 4.93037 18.3073 5.86174C19.2387 6.7931 19.9087 7.95306 20.2501 9.22519" stroke="#009379" stroke-width="1.5" stroke-linecap="round" stroke-linejoin="round"/>
<path d="M14.1655 6.81592C14.9306 7.01912 15.6284 7.42096 16.1882 7.98074C16.748 8.54051 17.1498 9.23831 17.353 10.0034" stroke="#009379" stroke-width="1.5" stroke-linecap="round" stroke-linejoin="round"/>
</svg>
