<svg width="32" height="33" viewBox="0 0 32 33" fill="none" xmlns="http://www.w3.org/2000/svg">
<path fill-rule="evenodd" clip-rule="evenodd" d="M0 16.1689C0 7.33239 7.16344 0.168945 16 0.168945C24.8366 0.168945 32 7.33239 32 16.1689C32 25.0055 24.8366 32.1689 16 32.1689C7.16344 32.1689 0 25.0055 0 16.1689Z" fill="#4E4D4D"/>
<path fill-rule="evenodd" clip-rule="evenodd" d="M15.5208 13.174L15.5544 13.7277L14.9948 13.6599C12.9579 13.4 11.1784 12.5187 9.66756 11.0386L8.92891 10.3042L8.73865 10.8465C8.33575 12.0555 8.59316 13.3322 9.43253 14.1909C9.8802 14.6655 9.77948 14.7333 9.00725 14.4508C8.73865 14.3604 8.50363 14.2926 8.48124 14.3265C8.4029 14.4056 8.6715 15.4338 8.88414 15.8405C9.17513 16.4055 9.76828 16.9591 10.4174 17.2868L10.9658 17.5466L10.3167 17.5579C9.68994 17.5579 9.66756 17.5692 9.73471 17.8065C9.95854 18.5409 10.8427 19.3205 11.8276 19.6595L12.5214 19.8968L11.9171 20.2583C11.0218 20.7781 9.96973 21.0718 8.91772 21.0944C8.41409 21.1057 8 21.1509 8 21.1848C8 21.2978 9.36538 21.9305 10.16 22.1791C12.5438 22.9135 15.3753 22.5972 17.5017 21.343C19.0126 20.4504 20.5235 18.6765 21.2286 16.9591C21.6091 16.0439 21.9896 14.3717 21.9896 13.5695C21.9896 13.0498 22.0232 12.982 22.6499 12.3605C23.0192 11.999 23.3662 11.6035 23.4333 11.4905C23.5452 11.2759 23.534 11.2759 22.9633 11.4679C22.012 11.8069 21.8777 11.7617 22.3477 11.2533C22.6947 10.8917 23.1088 10.2364 23.1088 10.0443C23.1088 10.0104 22.9409 10.0669 22.7506 10.1686C22.5492 10.2816 22.1015 10.4511 21.7658 10.5527L21.1614 10.7448L20.613 10.372C20.3108 10.1686 19.8856 9.94262 19.6617 9.87482C19.0909 9.71664 18.218 9.73924 17.7032 9.92002C16.3042 10.4285 15.4201 11.7391 15.5208 13.174Z" fill="white"/>
</svg>
